# xmcd
# 
# Track frame offsets:
#     182
#     27212
#     45770
#     68747
#     99657
#     120800
#     130067
#     149550
#     190632
# 
# Disc length: 2894
# 
# Revision: 1
# Processed by: cddbd v1.5.2PL0 Copyright (c) Steve Scherf et al.
# Submitted via: BonkEnc v1.0.8
# 
DISCID=6c0b4c09
DTITLE=Airto Moreira - Struck By Lightning
DYEAR=1989
DGENRE=Brazil
TTITLE0=It's Time For Carnival
TTITLE1=Burning Money (Queim Ando Dinheiro)
TTITLE2=Berimbau First Cry
TTITLE3=Sea Horse
TTITLE4=Struck By Lightning
TTITLE5=Samba Louco (Crazy Samba)
TTITLE6=Seven Dwarfs
TTITLE7=Samba Nosso (Our Samba)
TTITLE8=Skins and Rattle
EXTD=YEAR: 1989
EXTT0=
EXTT1=
EXTT2=
EXTT3=
EXTT4=
EXTT5=
EXTT6=
EXTT7=
EXTT8=
PLAYORDER=
